# xmcd CD database file
#
# Track frame offsets:
#	182
#	18377
#	38882
#	48497
#
# Disc length: 863 seconds
#
# Revision: 0
# Processed by: cddbd v1.5.2PL0 Copyright (c) Steve Scherf et al.
# Submitted via: CDex 1.50
#
DISCID=2b035d04
DTITLE=Centrifugal Force - Excerpts from Matter (Vol III)
DYEAR=1993
DGENRE=Jazz
TTITLE0=Open Water
TTITLE1=Wanda Lynn
TTITLE2=Lie Still, Sleep beclamed
TTITLE3=Existences I
EXTD=YEAR: 1993
EXTT0=
EXTT1=
EXTT2=
EXTT3=
PLAYORDER=
